<?xml version="1.0" encoding="UTF-8" standalone="no"?>
<!DOCTYPE svg PUBLIC "-//W3C//DTD SVG 1.1//EN"
 "http://www.w3.org/Graphics/SVG/1.1/DTD/svg11.dtd">
<!-- Generated by graphviz version 2.50.0 (20211204.2007)
 -->
<!-- Title: G Pages: 1 -->
<svg width="750pt" height="548pt"
 viewBox="0.00 0.00 749.60 548.00" xmlns="http://www.w3.org/2000/svg" xmlns:xlink="http://www.w3.org/1999/xlink">
<g id="graph0" class="graph" transform="scale(1 1) rotate(0) translate(4 544)">
<title>G</title>
<polygon fill="white" stroke="transparent" points="-4,4 -4,-544 745.6,-544 745.6,4 -4,4"/>
<!-- Start -->
<g id="node1" class="node">
<title>Start</title>
<ellipse fill="none" stroke="black" cx="497.6" cy="-522" rx="27.9" ry="18"/>
<text text-anchor="middle" x="497.6" y="-518.3" font-family="Times New Roman,serif" font-size="14.00">Start</text>
</g>
<!-- 0 -->
<g id="node2" class="node">
<title>0</title>
<ellipse fill="none" stroke="black" cx="461.6" cy="-450" rx="27" ry="18"/>
<text text-anchor="middle" x="461.6" y="-446.3" font-family="Times New Roman,serif" font-size="14.00">25</text>
</g>
<!-- Start&#45;&gt;0 -->
<g id="edge1" class="edge">
<title>Start&#45;&gt;0</title>
<path fill="none" stroke="black" d="M489.25,-504.76C484.89,-496.28 479.45,-485.71 474.56,-476.2"/>
<polygon fill="black" stroke="black" points="477.59,-474.44 469.9,-467.15 471.36,-477.64 477.59,-474.44"/>
</g>
<!-- 1 -->
<g id="node28" class="node">
<title>1</title>
<ellipse fill="none" stroke="black" cx="588.6" cy="-450" rx="27" ry="18"/>
<text text-anchor="middle" x="588.6" y="-446.3" font-family="Times New Roman,serif" font-size="14.00">24</text>
</g>
<!-- Start&#45;&gt;1 -->
<g id="edge27" class="edge">
<title>Start&#45;&gt;1</title>
<path fill="none" stroke="black" d="M515.14,-507.5C528.83,-496.98 548.02,-482.22 563.35,-470.42"/>
<polygon fill="black" stroke="black" points="565.62,-473.09 571.41,-464.22 561.35,-467.54 565.62,-473.09"/>
</g>
<!-- 00 -->
<g id="node3" class="node">
<title>00</title>
<ellipse fill="none" stroke="black" cx="306.6" cy="-378" rx="27" ry="18"/>
<text text-anchor="middle" x="306.6" y="-374.3" font-family="Times New Roman,serif" font-size="14.00">16</text>
</g>
<!-- 0&#45;&gt;00 -->
<g id="edge2" class="edge">
<title>0&#45;&gt;00</title>
<path fill="none" stroke="black" d="M439.72,-439.12C413.06,-427.08 367.85,-406.66 337.61,-393.01"/>
<polygon fill="black" stroke="black" points="338.92,-389.76 328.37,-388.83 336.04,-396.14 338.92,-389.76"/>
</g>
<!-- 01 -->
<g id="node26" class="node">
<title>01</title>
<ellipse fill="none" stroke="black" cx="461.6" cy="-378" rx="27" ry="18"/>
<text text-anchor="middle" x="461.6" y="-374.3" font-family="Times New Roman,serif" font-size="14.00">01</text>
</g>
<!-- 0&#45;&gt;01 -->
<g id="edge25" class="edge">
<title>0&#45;&gt;01</title>
<path fill="none" stroke="black" d="M461.6,-431.7C461.6,-423.98 461.6,-414.71 461.6,-406.11"/>
<polygon fill="black" stroke="black" points="465.1,-406.1 461.6,-396.1 458.1,-406.1 465.1,-406.1"/>
</g>
<!-- 000 -->
<g id="node4" class="node">
<title>000</title>
<ellipse fill="none" stroke="black" cx="103.6" cy="-306" rx="27" ry="18"/>
<text text-anchor="middle" x="103.6" y="-302.3" font-family="Times New Roman,serif" font-size="14.00">8</text>
</g>
<!-- 00&#45;&gt;000 -->
<g id="edge3" class="edge">
<title>00&#45;&gt;000</title>
<path fill="none" stroke="black" d="M282.91,-368.83C246.78,-356.37 177.75,-332.57 136.68,-318.41"/>
<polygon fill="black" stroke="black" points="137.73,-315.07 127.13,-315.11 135.44,-321.68 137.73,-315.07"/>
</g>
<!-- 001 -->
<g id="node9" class="node">
<title>001</title>
<ellipse fill="none" stroke="black" cx="306.6" cy="-306" rx="27" ry="18"/>
<text text-anchor="middle" x="306.6" y="-302.3" font-family="Times New Roman,serif" font-size="14.00">8</text>
</g>
<!-- 00&#45;&gt;001 -->
<g id="edge8" class="edge">
<title>00&#45;&gt;001</title>
<path fill="none" stroke="black" d="M306.6,-359.7C306.6,-351.98 306.6,-342.71 306.6,-334.11"/>
<polygon fill="black" stroke="black" points="310.1,-334.1 306.6,-324.1 303.1,-334.1 310.1,-334.1"/>
</g>
<!-- 0000 -->
<g id="node5" class="node">
<title>0000</title>
<ellipse fill="none" stroke="black" cx="28.6" cy="-234" rx="28.7" ry="18"/>
<text text-anchor="middle" x="28.6" y="-230.3" font-family="Times New Roman,serif" font-size="14.00">0000</text>
</g>
<!-- 000&#45;&gt;0000 -->
<g id="edge4" class="edge">
<title>000&#45;&gt;0000</title>
<path fill="none" stroke="black" d="M88.42,-290.83C77.82,-280.94 63.47,-267.55 51.48,-256.36"/>
<polygon fill="black" stroke="black" points="53.71,-253.65 44.01,-249.38 48.93,-258.77 53.71,-253.65"/>
</g>
<!-- 0001 -->
<g id="node7" class="node">
<title>0001</title>
<ellipse fill="none" stroke="black" cx="103.6" cy="-234" rx="28.7" ry="18"/>
<text text-anchor="middle" x="103.6" y="-230.3" font-family="Times New Roman,serif" font-size="14.00">0001</text>
</g>
<!-- 000&#45;&gt;0001 -->
<g id="edge6" class="edge">
<title>000&#45;&gt;0001</title>
<path fill="none" stroke="black" d="M103.6,-287.7C103.6,-279.98 103.6,-270.71 103.6,-262.11"/>
<polygon fill="black" stroke="black" points="107.1,-262.1 103.6,-252.1 100.1,-262.1 107.1,-262.1"/>
</g>
<!-- e -->
<g id="node6" class="node">
<title>e</title>
<ellipse fill="none" stroke="black" cx="28.6" cy="-162" rx="27" ry="18"/>
<text text-anchor="middle" x="28.6" y="-158.3" font-family="Times New Roman,serif" font-size="14.00">e</text>
</g>
<!-- 0000&#45;&gt;e -->
<g id="edge5" class="edge">
<title>0000&#45;&gt;e</title>
<path fill="none" stroke="black" d="M28.6,-215.7C28.6,-207.98 28.6,-198.71 28.6,-190.11"/>
<polygon fill="black" stroke="black" points="32.1,-190.1 28.6,-180.1 25.1,-190.1 32.1,-190.1"/>
</g>
<!-- a -->
<g id="node8" class="node">
<title>a</title>
<ellipse fill="none" stroke="black" cx="101.6" cy="-162" rx="27" ry="18"/>
<text text-anchor="middle" x="101.6" y="-158.3" font-family="Times New Roman,serif" font-size="14.00">a</text>
</g>
<!-- 0001&#45;&gt;a -->
<g id="edge7" class="edge">
<title>0001&#45;&gt;a</title>
<path fill="none" stroke="black" d="M103.1,-215.7C102.88,-207.98 102.62,-198.71 102.37,-190.11"/>
<polygon fill="black" stroke="black" points="105.87,-190 102.09,-180.1 98.87,-190.2 105.87,-190"/>
</g>
<!-- 0010 -->
<g id="node10" class="node">
<title>0010</title>
<ellipse fill="none" stroke="black" cx="261.6" cy="-234" rx="27" ry="18"/>
<text text-anchor="middle" x="261.6" y="-230.3" font-family="Times New Roman,serif" font-size="14.00">4</text>
</g>
<!-- 001&#45;&gt;0010 -->
<g id="edge9" class="edge">
<title>001&#45;&gt;0010</title>
<path fill="none" stroke="black" d="M296.39,-289.12C290.75,-280.34 283.62,-269.26 277.29,-259.42"/>
<polygon fill="black" stroke="black" points="280.12,-257.34 271.77,-250.82 274.23,-261.13 280.12,-257.34"/>
</g>
<!-- 0011 -->
<g id="node15" class="node">
<title>0011</title>
<ellipse fill="none" stroke="black" cx="381.6" cy="-234" rx="27" ry="18"/>
<text text-anchor="middle" x="381.6" y="-230.3" font-family="Times New Roman,serif" font-size="14.00">4</text>
</g>
<!-- 001&#45;&gt;0011 -->
<g id="edge14" class="edge">
<title>001&#45;&gt;0011</title>
<path fill="none" stroke="black" d="M321.77,-290.83C332.45,-280.87 346.92,-267.37 358.95,-256.14"/>
<polygon fill="black" stroke="black" points="361.52,-258.53 366.44,-249.14 356.74,-253.41 361.52,-258.53"/>
</g>
<!-- 00100 -->
<g id="node11" class="node">
<title>00100</title>
<ellipse fill="none" stroke="black" cx="178.6" cy="-162" rx="32.49" ry="18"/>
<text text-anchor="middle" x="178.6" y="-158.3" font-family="Times New Roman,serif" font-size="14.00">00100</text>
</g>
<!-- 0010&#45;&gt;00100 -->
<g id="edge10" class="edge">
<title>0010&#45;&gt;00100</title>
<path fill="none" stroke="black" d="M245.2,-219.17C233.38,-209.21 217.22,-195.57 203.78,-184.23"/>
<polygon fill="black" stroke="black" points="205.72,-181.3 195.82,-177.52 201.21,-186.65 205.72,-181.3"/>
</g>
<!-- 00101 -->
<g id="node13" class="node">
<title>00101</title>
<ellipse fill="none" stroke="black" cx="261.6" cy="-162" rx="32.49" ry="18"/>
<text text-anchor="middle" x="261.6" y="-158.3" font-family="Times New Roman,serif" font-size="14.00">00101</text>
</g>
<!-- 0010&#45;&gt;00101 -->
<g id="edge12" class="edge">
<title>0010&#45;&gt;00101</title>
<path fill="none" stroke="black" d="M261.6,-215.7C261.6,-207.98 261.6,-198.71 261.6,-190.11"/>
<polygon fill="black" stroke="black" points="265.1,-190.1 261.6,-180.1 258.1,-190.1 265.1,-190.1"/>
</g>
<!-- o -->
<g id="node12" class="node">
<title>o</title>
<ellipse fill="none" stroke="black" cx="156.6" cy="-90" rx="27" ry="18"/>
<text text-anchor="middle" x="156.6" y="-86.3" font-family="Times New Roman,serif" font-size="14.00">o</text>
</g>
<!-- 00100&#45;&gt;o -->
<g id="edge11" class="edge">
<title>00100&#45;&gt;o</title>
<path fill="none" stroke="black" d="M173.27,-144.05C170.76,-136.06 167.7,-126.33 164.89,-117.4"/>
<polygon fill="black" stroke="black" points="168.21,-116.28 161.87,-107.79 161.53,-118.38 168.21,-116.28"/>
</g>
<!-- h -->
<g id="node14" class="node">
<title>h</title>
<ellipse fill="none" stroke="black" cx="228.6" cy="-90" rx="27" ry="18"/>
<text text-anchor="middle" x="228.6" y="-86.3" font-family="Times New Roman,serif" font-size="14.00">h</text>
</g>
<!-- 00101&#45;&gt;h -->
<g id="edge13" class="edge">
<title>00101&#45;&gt;h</title>
<path fill="none" stroke="black" d="M253.78,-144.41C249.87,-136.13 245.06,-125.92 240.7,-116.66"/>
<polygon fill="black" stroke="black" points="243.79,-115.02 236.36,-107.47 237.46,-118.01 243.79,-115.02"/>
</g>
<!-- 00110 -->
<g id="node16" class="node">
<title>00110</title>
<ellipse fill="none" stroke="black" cx="381.6" cy="-162" rx="27" ry="18"/>
<text text-anchor="middle" x="381.6" y="-158.3" font-family="Times New Roman,serif" font-size="14.00">2</text>
</g>
<!-- 0011&#45;&gt;00110 -->
<g id="edge15" class="edge">
<title>0011&#45;&gt;00110</title>
<path fill="none" stroke="black" d="M381.6,-215.7C381.6,-207.98 381.6,-198.71 381.6,-190.11"/>
<polygon fill="black" stroke="black" points="385.1,-190.1 381.6,-180.1 378.1,-190.1 385.1,-190.1"/>
</g>
<!-- 00111 -->
<g id="node21" class="node">
<title>00111</title>
<ellipse fill="none" stroke="black" cx="463.6" cy="-162" rx="27" ry="18"/>
<text text-anchor="middle" x="463.6" y="-158.3" font-family="Times New Roman,serif" font-size="14.00">2</text>
</g>
<!-- 0011&#45;&gt;00111 -->
<g id="edge20" class="edge">
<title>0011&#45;&gt;00111</title>
<path fill="none" stroke="black" d="M397.8,-219.17C409.78,-208.94 426.29,-194.85 439.77,-183.34"/>
<polygon fill="black" stroke="black" points="442.38,-185.72 447.71,-176.56 437.83,-180.39 442.38,-185.72"/>
</g>
<!-- 001100 -->
<g id="node17" class="node">
<title>001100</title>
<ellipse fill="none" stroke="black" cx="310.6" cy="-90" rx="37.09" ry="18"/>
<text text-anchor="middle" x="310.6" y="-86.3" font-family="Times New Roman,serif" font-size="14.00">001100</text>
</g>
<!-- 00110&#45;&gt;001100 -->
<g id="edge16" class="edge">
<title>00110&#45;&gt;001100</title>
<path fill="none" stroke="black" d="M366.89,-146.5C357.25,-137 344.46,-124.38 333.5,-113.58"/>
<polygon fill="black" stroke="black" points="335.85,-110.98 326.27,-106.46 330.94,-115.97 335.85,-110.98"/>
</g>
<!-- 001101 -->
<g id="node19" class="node">
<title>001101</title>
<ellipse fill="none" stroke="black" cx="402.6" cy="-90" rx="37.09" ry="18"/>
<text text-anchor="middle" x="402.6" y="-86.3" font-family="Times New Roman,serif" font-size="14.00">001101</text>
</g>
<!-- 00110&#45;&gt;001101 -->
<g id="edge18" class="edge">
<title>00110&#45;&gt;001101</title>
<path fill="none" stroke="black" d="M386.68,-144.05C389.02,-136.26 391.85,-126.82 394.47,-118.08"/>
<polygon fill="black" stroke="black" points="397.89,-118.86 397.41,-108.28 391.19,-116.85 397.89,-118.86"/>
</g>
<!-- r -->
<g id="node18" class="node">
<title>r</title>
<ellipse fill="none" stroke="black" cx="310.6" cy="-18" rx="27" ry="18"/>
<text text-anchor="middle" x="310.6" y="-14.3" font-family="Times New Roman,serif" font-size="14.00">r</text>
</g>
<!-- 001100&#45;&gt;r -->
<g id="edge17" class="edge">
<title>001100&#45;&gt;r</title>
<path fill="none" stroke="black" d="M310.6,-71.7C310.6,-63.98 310.6,-54.71 310.6,-46.11"/>
<polygon fill="black" stroke="black" points="314.1,-46.1 310.6,-36.1 307.1,-46.1 314.1,-46.1"/>
</g>
<!-- f -->
<g id="node20" class="node">
<title>f</title>
<ellipse fill="none" stroke="black" cx="402.6" cy="-18" rx="27" ry="18"/>
<text text-anchor="middle" x="402.6" y="-14.3" font-family="Times New Roman,serif" font-size="14.00">f</text>
</g>
<!-- 001101&#45;&gt;f -->
<g id="edge19" class="edge">
<title>001101&#45;&gt;f</title>
<path fill="none" stroke="black" d="M402.6,-71.7C402.6,-63.98 402.6,-54.71 402.6,-46.11"/>
<polygon fill="black" stroke="black" points="406.1,-46.1 402.6,-36.1 399.1,-46.1 406.1,-46.1"/>
</g>
<!-- 001110 -->
<g id="node22" class="node">
<title>001110</title>
<ellipse fill="none" stroke="black" cx="494.6" cy="-90" rx="37.09" ry="18"/>
<text text-anchor="middle" x="494.6" y="-86.3" font-family="Times New Roman,serif" font-size="14.00">001110</text>
</g>
<!-- 00111&#45;&gt;001110 -->
<g id="edge21" class="edge">
<title>00111&#45;&gt;001110</title>
<path fill="none" stroke="black" d="M470.94,-144.41C474.52,-136.34 478.91,-126.43 482.93,-117.35"/>
<polygon fill="black" stroke="black" points="486.24,-118.52 487.09,-107.96 479.84,-115.68 486.24,-118.52"/>
</g>
<!-- 001111 -->
<g id="node24" class="node">
<title>001111</title>
<ellipse fill="none" stroke="black" cx="586.6" cy="-90" rx="37.09" ry="18"/>
<text text-anchor="middle" x="586.6" y="-86.3" font-family="Times New Roman,serif" font-size="14.00">001111</text>
</g>
<!-- 00111&#45;&gt;001111 -->
<g id="edge23" class="edge">
<title>00111&#45;&gt;001111</title>
<path fill="none" stroke="black" d="M483.63,-149.6C502.78,-138.7 531.96,-122.09 554.37,-109.34"/>
<polygon fill="black" stroke="black" points="556.25,-112.3 563.21,-104.31 552.79,-106.21 556.25,-112.3"/>
</g>
<!-- y -->
<g id="node23" class="node">
<title>y</title>
<ellipse fill="none" stroke="black" cx="494.6" cy="-18" rx="27" ry="18"/>
<text text-anchor="middle" x="494.6" y="-14.3" font-family="Times New Roman,serif" font-size="14.00">y</text>
</g>
<!-- 001110&#45;&gt;y -->
<g id="edge22" class="edge">
<title>001110&#45;&gt;y</title>
<path fill="none" stroke="black" d="M494.6,-71.7C494.6,-63.98 494.6,-54.71 494.6,-46.11"/>
<polygon fill="black" stroke="black" points="498.1,-46.1 494.6,-36.1 491.1,-46.1 498.1,-46.1"/>
</g>
<!-- u -->
<g id="node25" class="node">
<title>u</title>
<ellipse fill="none" stroke="black" cx="586.6" cy="-18" rx="27" ry="18"/>
<text text-anchor="middle" x="586.6" y="-14.3" font-family="Times New Roman,serif" font-size="14.00">u</text>
</g>
<!-- 001111&#45;&gt;u -->
<g id="edge24" class="edge">
<title>001111&#45;&gt;u</title>
<path fill="none" stroke="black" d="M586.6,-71.7C586.6,-63.98 586.6,-54.71 586.6,-46.11"/>
<polygon fill="black" stroke="black" points="590.1,-46.1 586.6,-36.1 583.1,-46.1 590.1,-46.1"/>
</g>
<!-- s -->
<g id="node27" class="node">
<title>s</title>
<ellipse fill="none" stroke="black" cx="461.6" cy="-306" rx="27" ry="18"/>
<text text-anchor="middle" x="461.6" y="-302.3" font-family="Times New Roman,serif" font-size="14.00">s</text>
</g>
<!-- 01&#45;&gt;s -->
<g id="edge26" class="edge">
<title>01&#45;&gt;s</title>
<path fill="none" stroke="black" d="M461.6,-359.7C461.6,-351.98 461.6,-342.71 461.6,-334.11"/>
<polygon fill="black" stroke="black" points="465.1,-334.1 461.6,-324.1 458.1,-334.1 465.1,-334.1"/>
</g>
<!-- 10 -->
<g id="node29" class="node">
<title>10</title>
<ellipse fill="none" stroke="black" cx="588.6" cy="-378" rx="27" ry="18"/>
<text text-anchor="middle" x="588.6" y="-374.3" font-family="Times New Roman,serif" font-size="14.00">12</text>
</g>
<!-- 1&#45;&gt;10 -->
<g id="edge28" class="edge">
<title>1&#45;&gt;10</title>
<path fill="none" stroke="black" d="M588.6,-431.7C588.6,-423.98 588.6,-414.71 588.6,-406.11"/>
<polygon fill="black" stroke="black" points="592.1,-406.1 588.6,-396.1 585.1,-406.1 592.1,-406.1"/>
</g>
<!-- 11 -->
<g id="node37" class="node">
<title>11</title>
<ellipse fill="none" stroke="black" cx="696.6" cy="-378" rx="27" ry="18"/>
<text text-anchor="middle" x="696.6" y="-374.3" font-family="Times New Roman,serif" font-size="14.00">11</text>
</g>
<!-- 1&#45;&gt;11 -->
<g id="edge36" class="edge">
<title>1&#45;&gt;11</title>
<path fill="none" stroke="black" d="M607.41,-436.81C624.6,-425.67 650.22,-409.06 669.59,-396.5"/>
<polygon fill="black" stroke="black" points="671.51,-399.43 678,-391.05 667.71,-393.56 671.51,-399.43"/>
</g>
<!-- 100 -->
<g id="node30" class="node">
<title>100</title>
<ellipse fill="none" stroke="black" cx="570.6" cy="-306" rx="27" ry="18"/>
<text text-anchor="middle" x="570.6" y="-302.3" font-family="Times New Roman,serif" font-size="14.00">6</text>
</g>
<!-- 10&#45;&gt;100 -->
<g id="edge29" class="edge">
<title>10&#45;&gt;100</title>
<path fill="none" stroke="black" d="M584.24,-360.05C582.21,-352.14 579.74,-342.54 577.46,-333.69"/>
<polygon fill="black" stroke="black" points="580.79,-332.6 574.91,-323.79 574.02,-334.35 580.79,-332.6"/>
</g>
<!-- 101 -->
<g id="node35" class="node">
<title>101</title>
<ellipse fill="none" stroke="black" cx="642.6" cy="-306" rx="27" ry="18"/>
<text text-anchor="middle" x="642.6" y="-302.3" font-family="Times New Roman,serif" font-size="14.00">101</text>
</g>
<!-- 10&#45;&gt;101 -->
<g id="edge34" class="edge">
<title>10&#45;&gt;101</title>
<path fill="none" stroke="black" d="M600.58,-361.46C607.57,-352.4 616.53,-340.79 624.38,-330.61"/>
<polygon fill="black" stroke="black" points="627.31,-332.55 630.65,-322.49 621.77,-328.27 627.31,-332.55"/>
</g>
<!-- 1000 -->
<g id="node31" class="node">
<title>1000</title>
<ellipse fill="none" stroke="black" cx="533.6" cy="-234" rx="28.7" ry="18"/>
<text text-anchor="middle" x="533.6" y="-230.3" font-family="Times New Roman,serif" font-size="14.00">1000</text>
</g>
<!-- 100&#45;&gt;1000 -->
<g id="edge30" class="edge">
<title>100&#45;&gt;1000</title>
<path fill="none" stroke="black" d="M562.02,-288.76C557.6,-280.4 552.11,-270.02 547.13,-260.61"/>
<polygon fill="black" stroke="black" points="550.16,-258.84 542.39,-251.63 543.97,-262.11 550.16,-258.84"/>
</g>
<!-- 1001 -->
<g id="node33" class="node">
<title>1001</title>
<ellipse fill="none" stroke="black" cx="608.6" cy="-234" rx="28.7" ry="18"/>
<text text-anchor="middle" x="608.6" y="-230.3" font-family="Times New Roman,serif" font-size="14.00">1001</text>
</g>
<!-- 100&#45;&gt;1001 -->
<g id="edge32" class="edge">
<title>100&#45;&gt;1001</title>
<path fill="none" stroke="black" d="M579.41,-288.76C584.02,-280.28 589.75,-269.71 594.92,-260.2"/>
<polygon fill="black" stroke="black" points="598.14,-261.61 599.83,-251.15 591.98,-258.27 598.14,-261.61"/>
</g>
<!-- n -->
<g id="node32" class="node">
<title>n</title>
<ellipse fill="none" stroke="black" cx="535.6" cy="-162" rx="27" ry="18"/>
<text text-anchor="middle" x="535.6" y="-158.3" font-family="Times New Roman,serif" font-size="14.00">n</text>
</g>
<!-- 1000&#45;&gt;n -->
<g id="edge31" class="edge">
<title>1000&#45;&gt;n</title>
<path fill="none" stroke="black" d="M534.09,-215.7C534.31,-207.98 534.58,-198.71 534.82,-190.11"/>
<polygon fill="black" stroke="black" points="538.32,-190.2 535.11,-180.1 531.32,-190 538.32,-190.2"/>
</g>
<!-- g -->
<g id="node34" class="node">
<title>g</title>
<ellipse fill="none" stroke="black" cx="608.6" cy="-162" rx="27" ry="18"/>
<text text-anchor="middle" x="608.6" y="-158.3" font-family="Times New Roman,serif" font-size="14.00">g</text>
</g>
<!-- 1001&#45;&gt;g -->
<g id="edge33" class="edge">
<title>1001&#45;&gt;g</title>
<path fill="none" stroke="black" d="M608.6,-215.7C608.6,-207.98 608.6,-198.71 608.6,-190.11"/>
<polygon fill="black" stroke="black" points="612.1,-190.1 608.6,-180.1 605.1,-190.1 612.1,-190.1"/>
</g>
<!-- i -->
<g id="node36" class="node">
<title>i</title>
<ellipse fill="none" stroke="black" cx="682.6" cy="-234" rx="27" ry="18"/>
<text text-anchor="middle" x="682.6" y="-230.3" font-family="Times New Roman,serif" font-size="14.00">i</text>
</g>
<!-- 101&#45;&gt;i -->
<g id="edge35" class="edge">
<title>101&#45;&gt;i</title>
<path fill="none" stroke="black" d="M651.87,-288.76C656.77,-280.19 662.89,-269.49 668.37,-259.9"/>
<polygon fill="black" stroke="black" points="671.45,-261.57 673.37,-251.15 665.37,-258.09 671.45,-261.57"/>
</g>
<!-- t -->
<g id="node38" class="node">
<title>t</title>
<ellipse fill="none" stroke="black" cx="714.6" cy="-306" rx="27" ry="18"/>
<text text-anchor="middle" x="714.6" y="-302.3" font-family="Times New Roman,serif" font-size="14.00">t</text>
</g>
<!-- 11&#45;&gt;t -->
<g id="edge37" class="edge">
<title>11&#45;&gt;t</title>
<path fill="none" stroke="black" d="M700.95,-360.05C702.99,-352.14 705.46,-342.54 707.73,-333.69"/>
<polygon fill="black" stroke="black" points="711.18,-334.35 710.28,-323.79 704.4,-332.6 711.18,-334.35"/>
</g>
</g>
</svg>
